<svg xmlns="http://www.w3.org/2000/svg" viewBox="0 0 32 32">
  <rect width="32" height="32" rx="2.5" fill="#1c1610"/>

  <!-- all 25 cells, dim -->
  <rect x="2" y="2" width="5" height="5" rx="0.5" fill="#2e231a"/>
  <rect x="8" y="2" width="5" height="5" rx="0.5" fill="#2e231a"/>
  <rect x="14" y="2" width="5" height="5" rx="0.5" fill="#2e231a"/>
  <rect x="20" y="2" width="5" height="5" rx="0.5" fill="#2e231a"/>
  <rect x="26" y="2" width="5" height="5" rx="0.5" fill="#2e231a"/>

  <rect x="2" y="8" width="5" height="5" rx="0.5" fill="#2e231a"/>
  <rect x="8" y="8" width="5" height="5" rx="0.5" fill="#2e231a"/>
  <rect x="14" y="8" width="5" height="5" rx="0.5" fill="#2e231a"/>
  <rect x="20" y="8" width="5" height="5" rx="0.5" fill="#2e231a"/>
  <rect x="26" y="8" width="5" height="5" rx="0.5" fill="#2e231a"/>

  <rect x="2" y="14" width="5" height="5" rx="0.5" fill="#2e231a"/>
  <rect x="8" y="14" width="5" height="5" rx="0.5" fill="#2e231a"/>
  <rect x="14" y="14" width="5" height="5" rx="0.5" fill="#2e231a"/>
  <rect x="20" y="14" width="5" height="5" rx="0.5" fill="#2e231a"/>
  <rect x="26" y="14" width="5" height="5" rx="0.5" fill="#2e231a"/>

  <rect x="2" y="20" width="5" height="5" rx="0.5" fill="#2e231a"/>
  <rect x="8" y="20" width="5" height="5" rx="0.5" fill="#2e231a"/>
  <rect x="14" y="20" width="5" height="5" rx="0.5" fill="#2e231a"/>
  <rect x="20" y="20" width="5" height="5" rx="0.5" fill="#2e231a"/>
  <rect x="26" y="20" width="5" height="5" rx="0.5" fill="#2e231a"/>

  <rect x="2" y="26" width="5" height="5" rx="0.5" fill="#2e231a"/>
  <rect x="8" y="26" width="5" height="5" rx="0.5" fill="#2e231a"/>
  <rect x="14" y="26" width="5" height="5" rx="0.5" fill="#2e231a"/>
  <rect x="20" y="26" width="5" height="5" rx="0.5" fill="#2e231a"/>
  <rect x="26" y="26" width="5" height="5" rx="0.5" fill="#2e231a"/>

  <!-- X pattern: both diagonals marked in orange -->
  <rect x="2" y="2" width="5" height="5" rx="0.5" fill="#c87c1e"/>
  <rect x="8" y="8" width="5" height="5" rx="0.5" fill="#c87c1e"/>
  <rect x="20" y="8" width="5" height="5" rx="0.5" fill="#c87c1e"/>
  <rect x="26" y="2" width="5" height="5" rx="0.5" fill="#c87c1e"/>
  <!-- center free space slightly brighter -->
  <rect x="14" y="14" width="5" height="5" rx="0.5" fill="#e8932a"/>
  <rect x="8" y="20" width="5" height="5" rx="0.5" fill="#c87c1e"/>
  <rect x="20" y="20" width="5" height="5" rx="0.5" fill="#c87c1e"/>
  <rect x="2" y="26" width="5" height="5" rx="0.5" fill="#c87c1e"/>
  <rect x="26" y="26" width="5" height="5" rx="0.5" fill="#c87c1e"/>
</svg>